<svg width="65.000000" height="78.000000" viewBox="0 0 65 78" fill="none" xmlns="http://www.w3.org/2000/svg" xmlns:xlink="http://www.w3.org/1999/xlink">
	<desc>
			Created with Pixso.
	</desc>
	<defs>
		<clipPath id="clip2_6685">
			<rect id="Icons/Home" width="18.000000" height="18.000000" transform="translate(24.000000 49.000000)" fill="white" fill-opacity="0"/>
		</clipPath>
	</defs>
	<path id="Union" d="M2 0L63 0C64.1045 0 65 0.895508 65 2L65 22C65 23.1045 64.1045 24 63 24L37.196 24L32 33L26.804 24L2 24C0.895508 24 0 23.1045 0 22L0 2C0 0.895508 0.895508 0 2 0Z" clip-rule="evenodd" fill="#2B2B2B" fill-opacity="1.000000" fill-rule="evenodd"/>
	<path id="Home" d="M17.27 18L15.95 18L15.95 9.27L17.27 9.27L17.27 13.06L21.62 13.06L21.62 9.27L22.94 9.27L22.94 18L21.62 18L21.62 14.19L17.27 14.19L17.27 18ZM30.57 14.75C30.57 16.78 29.36 18.13 27.51 18.13C25.67 18.13 24.46 16.78 24.46 14.75C24.46 12.72 25.67 11.37 27.51 11.37C29.36 11.37 30.57 12.72 30.57 14.75ZM33.26 18L31.98 18L31.98 11.45L33.21 11.45L33.21 12.51L33.29 12.51C33.56 11.8 34.2 11.37 35.07 11.37C35.94 11.37 36.55 11.8 36.83 12.51L36.9 12.51C37.21 11.82 37.92 11.37 38.86 11.37C40.05 11.37 40.88 12.11 40.88 13.61L40.88 18L39.61 18L39.61 13.73C39.61 12.84 39.05 12.46 38.38 12.46C37.55 12.46 37.07 13.04 37.07 13.82L37.07 18L35.8 18L35.8 13.64C35.8 12.93 35.31 12.46 34.6 12.46C33.88 12.46 33.26 13.08 33.26 13.96L33.26 18ZM48.14 16.36C47.85 17.42 46.84 18.13 45.41 18.13C43.48 18.13 42.29 16.8 42.29 14.76C42.29 12.75 43.49 11.37 45.32 11.37C46.8 11.37 48.22 12.29 48.22 14.66L48.22 15.11L43.56 15.11C43.6 16.37 44.33 17.08 45.42 17.08C46.15 17.08 46.7 16.76 46.93 16.14L48.14 16.36ZM45.33 12.42C44.29 12.42 43.62 13.22 43.57 14.15L46.97 14.15C46.96 13.15 46.32 12.42 45.33 12.42ZM25.75 14.75C25.75 16.01 26.31 17.06 27.52 17.06C28.72 17.06 29.28 16.01 29.28 14.75C29.28 13.5 28.72 12.43 27.52 12.43C26.31 12.43 25.75 13.5 25.75 14.75Z" fill="#FFFFFF" fill-opacity="1.000000" fill-rule="evenodd"/>
	<circle id="Ellipse 10" cx="33.000000" cy="58.000000" r="20.000000" fill="#FFB400" fill-opacity="1.000000"/>
	<rect id="Icons/Home" width="18.000000" height="18.000000" transform="translate(24.000000 49.000000)" fill="#FFFFFF" fill-opacity="0"/>
	<rect id="Icons/Home" width="18.000000" height="18.000000" transform="translate(24.000000 49.000000)" fill="#FFFFFF" fill-opacity="0"/>
	<rect id="Icons/Home" width="18.000000" height="18.000000" transform="translate(24.000000 49.000000)" fill="#FFFFFF" fill-opacity="0"/>
	<rect id="Icons/Home" width="18.000000" height="18.000000" transform="translate(24.000000 49.000000)" fill="#FFFFFF" fill-opacity="0"/>
	<g clip-path="url(#clip2_6685)">
		<path id="Vector" d="M39 64C39 64.19 38.92 64.38 38.78 64.53C38.63 64.67 38.44 64.75 38.25 64.75L27.75 64.75C27.55 64.75 27.36 64.67 27.21 64.53C27.07 64.38 27 64.19 27 64L27 57.25L24.75 57.25L32.49 50.2C32.63 50.08 32.81 50.01 33 50.01C33.18 50.01 33.36 50.08 33.5 50.2L41.25 57.25L39 57.25L39 64Z" fill="#2B2B2B" fill-opacity="1.000000" fill-rule="nonzero"/>
	</g>
</svg>
