<svg width="86.000000" height="20.000000" viewBox="0 0 86 20" fill="none" xmlns="http://www.w3.org/2000/svg" xmlns:xlink="http://www.w3.org/1999/xlink">
	<desc>
			Created with Pixso.
	</desc>
	<defs>
		<clipPath id="clip2_649">
			<rect id="Frame" width="20.000000" height="20.000000" transform="translate(66.000000 0.000000)" fill="white" fill-opacity="0"/>
		</clipPath>
	</defs>
	<path id="ORDER NOW" d="M7.32 12.13Q7.76 11.18 7.76 9.92L7.76 9.54Q7.76 8.29 7.31 7.33Q6.97 6.61 6.41 6.14Q6.23 5.98 6.03 5.86Q5.86 5.75 5.67 5.67Q4.98 5.35 4.13 5.35Q3.29 5.35 2.59 5.67Q2.41 5.75 2.24 5.86Q2.03 5.98 1.85 6.14Q1.3 6.61 0.95 7.33Q0.5 8.29 0.5 9.55L0.5 9.97Q0.5 11.2 0.96 12.15Q1.3 12.84 1.83 13.3Q2.03 13.46 2.25 13.6Q2.44 13.72 2.63 13.8Q3.32 14.11 4.14 14.11Q5 14.11 5.71 13.78Q5.88 13.7 6.04 13.6Q6.28 13.45 6.48 13.27Q7 12.81 7.32 12.13ZM56.93 12.13Q57.38 11.18 57.38 9.92L57.38 9.54Q57.38 8.29 56.92 7.33Q56.58 6.61 56.02 6.14Q55.84 5.98 55.64 5.86Q55.47 5.75 55.28 5.67Q54.59 5.35 53.74 5.35Q52.9 5.35 52.2 5.67Q52.02 5.75 51.85 5.86Q51.65 5.98 51.47 6.14Q50.91 6.61 50.56 7.33Q50.11 8.29 50.11 9.55L50.11 9.97Q50.12 11.2 50.57 12.15Q50.91 12.84 51.44 13.3Q51.64 13.46 51.86 13.6Q52.05 13.72 52.25 13.8Q52.93 14.11 53.75 14.11Q54.62 14.11 55.32 13.78Q55.49 13.7 55.66 13.6Q55.89 13.45 56.09 13.27Q56.61 12.81 56.93 12.13ZM10.8 10.87L12.2 10.87L13.8 14L15.69 14L15.69 13.91L13.84 10.43Q14.61 10.08 14.99 9.5Q15.36 8.91 15.36 8.04Q15.36 7.18 14.97 6.6Q14.79 6.34 14.54 6.14Q13.72 5.46 12.21 5.46L9.04 5.46L9.04 14L10.8 14L10.8 10.87ZM16.7 5.46L16.7 14L19.34 14Q20.27 13.99 21.04 13.64Q21.2 13.57 21.35 13.48Q21.74 13.26 22.05 12.96Q22.46 12.57 22.73 12.04Q23.22 11.12 23.22 9.93L23.22 9.54Q23.22 8.38 22.75 7.47Q22.74 7.44 22.72 7.41Q22.42 6.84 21.96 6.43Q21.68 6.17 21.34 5.97Q21.21 5.9 21.07 5.83Q20.28 5.46 19.33 5.46L16.7 5.46ZM26.26 10.3L29.63 10.3L29.63 8.92L26.26 8.92L26.26 6.89L30.21 6.89L30.21 5.46L24.5 5.46L24.5 14L30.22 14L30.22 12.58L26.26 12.58L26.26 10.3ZM33.01 10.87L34.41 10.87L36.01 14L37.89 14L37.89 13.91L36.05 10.43Q36.82 10.08 37.19 9.5Q37.57 8.91 37.57 8.04Q37.57 7.18 37.17 6.6Q37 6.34 36.75 6.14Q35.93 5.46 34.42 5.46L31.25 5.46L31.25 14L33.01 14L33.01 10.87ZM47.08 14L48.83 14L48.83 5.46L47.08 5.46L47.08 11.09L43.65 5.46L41.9 5.46L41.9 14L43.65 14L43.65 8.38L47.08 14ZM66.45 5.46L65.3 11.53L63.9 5.46L62.41 5.46L61 11.52L59.85 5.46L58.1 5.46L59.99 14L61.76 14L63.15 8.29L64.54 14L66.31 14L68.2 5.46L66.45 5.46ZM5.5 7.5Q5.98 8.19 5.98 9.54L5.98 9.95Q5.98 11.28 5.5 11.98Q5.29 12.28 5 12.45Q4.64 12.67 4.14 12.67Q3.65 12.67 3.28 12.46Q2.98 12.28 2.76 11.95Q2.28 11.23 2.28 9.92L2.28 9.51Q2.29 8.18 2.77 7.49Q2.98 7.19 3.27 7.02Q3.64 6.8 4.13 6.8Q4.63 6.8 5 7.02Q5.29 7.19 5.5 7.5ZM55.11 7.5Q55.59 8.19 55.59 9.54L55.59 9.95Q55.59 11.28 55.11 11.98Q54.9 12.28 54.61 12.45Q54.25 12.67 53.75 12.67Q53.26 12.67 52.9 12.46Q52.59 12.28 52.37 11.95Q51.89 11.23 51.89 9.92L51.89 9.51Q51.9 8.18 52.38 7.49Q52.59 7.19 52.88 7.02Q53.25 6.8 53.74 6.8Q54.24 6.8 54.61 7.02Q54.9 7.19 55.11 7.5ZM12.22 9.45L10.8 9.45L10.8 6.89L12.21 6.89Q12.92 6.89 13.26 7.23Q13.32 7.29 13.36 7.35Q13.61 7.67 13.61 8.18Q13.61 8.64 13.39 8.94Q13.33 9.03 13.24 9.11Q13.23 9.12 13.23 9.13Q12.86 9.45 12.22 9.45ZM18.46 12.58L18.46 6.89L19.33 6.89Q20.09 6.89 20.59 7.25Q20.76 7.38 20.9 7.56Q21.44 8.23 21.44 9.53L21.44 9.98Q21.43 11.24 20.88 11.91Q20.73 12.09 20.55 12.23Q20.06 12.58 19.31 12.58L18.46 12.58ZM34.42 9.45L33.01 9.45L33.01 6.89L34.42 6.89Q35.13 6.89 35.47 7.23Q35.52 7.29 35.57 7.35Q35.81 7.67 35.81 8.18Q35.81 8.64 35.6 8.94Q35.54 9.03 35.45 9.11Q35.44 9.12 35.43 9.13Q35.07 9.45 34.42 9.45Z" fill="#FFB400" fill-opacity="1.000000" fill-rule="evenodd"/>
	<rect id="Frame" width="20.000000" height="20.000000" transform="translate(66.000000 0.000000)" fill="#FFFFFF" fill-opacity="0"/>
	<g clip-path="url(#clip2_649)">
		<path id="Vector" d="M76.14 9.99L73.78 7.64L74.96 6.46L78.5 9.99L74.96 13.53L73.78 12.35L76.14 9.99Z" fill="#FFB400" fill-opacity="1.000000" fill-rule="nonzero"/>
	</g>
</svg>
